<?xml version="1.0" encoding="UTF-8"?>
<svg version="1.1" viewBox="0 0 2048 541" width="1280" height="1280" xmlns="http://www.w3.org/2000/svg">
<path transform="translate(154,41)" d="m0 0h71l11 27 14 40 17 47 12 34 13 36 7 19 18 50 4 11 2 1v-252l1-13h74l1 1v449l-3 2-35 4-44 4-3-5-15-42-18-52-17-50-9-25-8-24-8-22-6-18-4-8v256l-6 2-61 8h-8l-1-29v-417z" fill="#E41118"/>
<path transform="translate(1671,40)" d="m0 0h82l3 8 11 28 12 31 8 21 11 27 3 9 1 1 10-22 9-21 11-26 14-33 10-21 2-2h69l11 1-1 5-13 31-12 28-30 69-18 43-16 37-5 13 1 8 15 39 18 47 8 20 13 34 16 41 15 39 9 24v3l-48-6-35-4-4-5-10-25-16-42-14-36-8-21-4-9v-2h-2l-2 6-7 15-10 24-12 28-10 23-11 25-4 5-54-6-22-3-1-3 13-28 11-27 19-44 12-28 12-29 9-20 7-17 6-13 4-12-2-9-15-38-13-34-15-39-11-28-15-39-11-29-4-8z" fill="#E41118"/>
<path transform="translate(472,41)" d="m0 0h207v75l-132 1-1 100h101l1 1-1 73-7 1-71 1h-22v110l75-5 40-2h17l1 73-2 1-83 5-70 6-47 4h-7v-443z" fill="#E41118"/>
<path transform="translate(1077,40)" d="m0 0h108l34 1v54l-1 20-1 1h-133l-1 98 20-1h64l18 1 1 72-1 1-101 1-1 170h-75l-1-11v-390l1-16z" fill="#E41118"/>
<path transform="translate(728,41)" d="m0 0h233v74l-1 1h-78v343l-1 1-29 2-39 2h-7l-1-335v-13h-76l-1-1-1-19v-31z" fill="#E51218"/>
<path transform="translate(1269,40)" d="m0 0h45l26 1 1 1v350h17l108 6 4 1v73l-1 1-28-1-137-7-26-1-11-1-1-1v-421z" fill="#E41118"/>
<path transform="translate(1533,40)" d="m0 0h71l5 2v441l-1 1-22-1-50-4-3-1-1-5v-432z" fill="#E41118"/>
<path transform="translate(1752,45)" d="m0 0 3 1 14 35 10 26 8 21 11 27-1 4-5-2-4-11v-3l-3-1-4-7-5-16-5-8-8-10-3-8-2-7-1-10-4-11-3-8v-10z" fill="#CD0C1D"/>
<path transform="translate(1838,263)" d="m0 0h5v8l5 15 11 28 18 47 4 9 1 8-5-2-6-7-3-6-2-8-1-16-8-11-7-15-3-11-5-8-6-15-2-4v-6z" fill="#CE0C1D"/>
<path transform="translate(272,220)" d="m0 0 5 2 7 3 3 7 5 3 1-3h2l3 14 3 10-2 1-5-6h-2v2h-3l-4-6-4-2-5-9v-3h-2z" fill="#CC0C1D"/>
<path transform="translate(307,273)" d="m0 0 3 1 11 31 1 7 2 1v2l-3 1-4-6-2-10-4-1-4-9-2-6v-10z" fill="#CF0C1D"/>
<path transform="translate(1898,424)" d="m0 0h2l4 6 5 13v6l-4-1-6-10-2-7v-6z" fill="#CE0C1D"/>
<path transform="translate(210,62)" d="m0 0h3l4 13h-3v-2l-3-1z" fill="#CC0C1E"/>
<path transform="translate(1884,388)" d="m0 0h2l4 6-1 4-4-1-2-8z" fill="#CE0C1D"/>
</svg>
